<mxfile host="app.diagrams.net" modified="2023-04-09T03:44:10.385Z" agent="Mozilla/5.0 (Windows NT 10.0; Win64; x64) AppleWebKit/537.36 (KHTML, like Gecko) Chrome/111.0.0.0 Safari/537.36" etag="Rned1nsKm-dbaZBWhQ4U" version="21.1.4" type="github">
  <diagram name="第 1 页" id="Ov6z6-J_8VN24Y0mYAsv">
    <mxGraphModel dx="1050" dy="581" grid="1" gridSize="10" guides="1" tooltips="1" connect="1" arrows="1" fold="1" page="1" pageScale="1" pageWidth="827" pageHeight="1169" math="0" shadow="0">
      <root>
        <mxCell id="0" />
        <mxCell id="1" parent="0" />
        <mxCell id="0mHNVSA0Z4p0JZN1M5dI-1" value="系统初始化" style="ellipse;whiteSpace=wrap;html=1;fontStyle=1" vertex="1" parent="1">
          <mxGeometry x="65" y="150" width="80" height="80" as="geometry" />
        </mxCell>
        <mxCell id="0mHNVSA0Z4p0JZN1M5dI-2" value="FY_MPI_SYS_Exit" style="whiteSpace=wrap;html=1;fontStyle=1" vertex="1" parent="1">
          <mxGeometry x="180" y="170" width="120" height="60" as="geometry" />
        </mxCell>
        <mxCell id="0mHNVSA0Z4p0JZN1M5dI-3" value="FY_MPI_VB_ExitModCommPool" style="whiteSpace=wrap;html=1;fillColor=#fff2cc;strokeColor=#d6b656;fontStyle=1" vertex="1" parent="1">
          <mxGeometry x="180" y="250" width="120" height="60" as="geometry" />
        </mxCell>
        <mxCell id="0mHNVSA0Z4p0JZN1M5dI-4" value="FY_MPI_VB_DestroyPool" style="whiteSpace=wrap;html=1;fillColor=#fff2cc;strokeColor=#d6b656;fontStyle=1" vertex="1" parent="1">
          <mxGeometry x="180" y="330" width="120" height="60" as="geometry" />
        </mxCell>
        <mxCell id="0mHNVSA0Z4p0JZN1M5dI-5" value="清空所有池子" style="shape=document;whiteSpace=wrap;html=1;boundedLbl=1;fillColor=#fff2cc;strokeColor=#d6b656;fontStyle=1" vertex="1" parent="1">
          <mxGeometry x="60" y="250" width="90" height="50" as="geometry" />
        </mxCell>
        <mxCell id="0mHNVSA0Z4p0JZN1M5dI-6" value="FY_MPI_VB_Exit" style="whiteSpace=wrap;html=1;fontStyle=1" vertex="1" parent="1">
          <mxGeometry x="180" y="410" width="120" height="60" as="geometry" />
        </mxCell>
        <mxCell id="0mHNVSA0Z4p0JZN1M5dI-7" value="FY_MPI_VB_SetConf" style="whiteSpace=wrap;html=1;fontStyle=1" vertex="1" parent="1">
          <mxGeometry x="380" y="170" width="120" height="60" as="geometry" />
        </mxCell>
        <mxCell id="0mHNVSA0Z4p0JZN1M5dI-8" value="FY_MPI_VB_Init" style="whiteSpace=wrap;html=1;fontStyle=1" vertex="1" parent="1">
          <mxGeometry x="380" y="245" width="120" height="60" as="geometry" />
        </mxCell>
        <mxCell id="0mHNVSA0Z4p0JZN1M5dI-9" value="FY_MPI_SYS_SetConf" style="whiteSpace=wrap;html=1;fontStyle=1" vertex="1" parent="1">
          <mxGeometry x="380" y="330" width="120" height="60" as="geometry" />
        </mxCell>
        <mxCell id="0mHNVSA0Z4p0JZN1M5dI-10" value="FY_MPI_SYS_Init" style="whiteSpace=wrap;html=1;fontStyle=1" vertex="1" parent="1">
          <mxGeometry x="380" y="410" width="120" height="60" as="geometry" />
        </mxCell>
        <mxCell id="0mHNVSA0Z4p0JZN1M5dI-11" value="完成" style="ellipse;whiteSpace=wrap;html=1;fontStyle=1" vertex="1" parent="1">
          <mxGeometry x="540" y="400" width="80" height="80" as="geometry" />
        </mxCell>
      </root>
    </mxGraphModel>
  </diagram>
</mxfile>
